HIERARCHY
ROOT Hips
{
	OFFSET -14.64140 90.27770 -84.91600
	CHANNELS 6 Xposition Yposition Zposition Zrotation Xrotation Yrotation
	JOINT Spine
	{
		OFFSET 0.00000 13.20850 -1.60436
		CHANNELS 3 Zrotation Xrotation Yrotation
		JOINT Spine1
		{
			OFFSET 0.00000 8.61716 0.00000
			CHANNELS 3 Zrotation Xrotation Yrotation
			JOINT Spine2
			{
				OFFSET 0.00000 8.61717 0.00000
				CHANNELS 3 Zrotation Xrotation Yrotation
				JOINT Spine3
				{
					OFFSET 0.00000 8.61717 0.00000
					CHANNELS 3 Zrotation Xrotation Yrotation
					JOINT Neck
					{
						OFFSET 0.00000 11.07920 1.10792
						CHANNELS 3 Zrotation Xrotation Yrotation
						JOINT Neck1
						{
							OFFSET 0.00000 7.08032 0.00000
							CHANNELS 3 Zrotation Xrotation Yrotation
							JOINT Head
							{
								OFFSET 0.00000 7.08031 0.00000
								CHANNELS 3 Zrotation Xrotation Yrotation
								End site
								{
									OFFSET 0.00000 0.00000 0.00000
								}
							}
						}
					}
					JOINT RightShoulder
					{
						OFFSET -0.01000 7.91373 5.19711
						CHANNELS 3 Zrotation Xrotation Yrotation
						JOINT RightArm
						{
							OFFSET -18.41580 0.00000 0.00000
							CHANNELS 3 Zrotation Xrotation Yrotation
							JOINT RightForeArm
							{
								OFFSET -29.11090 0.00000 0.00000
								CHANNELS 3 Zrotation Xrotation Yrotation
								JOINT RightHand
								{
									OFFSET -24.65040 0.00000 0.00000
									CHANNELS 3 Zrotation Xrotation Yrotation
									JOINT RightHandThumb1
									{
										OFFSET -5.35114 -0.85590 3.97906
										CHANNELS 3 Zrotation Xrotation Yrotation
										JOINT RightHandThumb2
										{
											OFFSET -4.52789 0.00000 0.00000
											CHANNELS 3 Zrotation Xrotation Yrotation
											JOINT RightHandThumb3
											{
												OFFSET -2.46976 0.00000 0.00000
												CHANNELS 3 Zrotation Xrotation Yrotation
												End site
												{
													OFFSET 0.00000 0.00000 0.00000
												}
											}
										}
									}
									JOINT RightHandIndex1
									{
										OFFSET -14.26970 0.00000 2.88139
										CHANNELS 3 Zrotation Xrotation Yrotation
										JOINT RightHandIndex2
										{
											OFFSET -5.48836 0.00000 0.00000
											CHANNELS 3 Zrotation Xrotation Yrotation
											JOINT RightHandIndex3
											{
												OFFSET -3.01859 0.00000 0.00000
												CHANNELS 3 Zrotation Xrotation Yrotation
												End site
												{
													OFFSET 0.00000 0.00000 0.00000
												}
											}
										}
									}
									JOINT RightHandMiddle1
									{
										OFFSET -14.26970 0.00000 -0.09147
										CHANNELS 3 Zrotation Xrotation Yrotation
										JOINT RightHandMiddle2
										{
											OFFSET -6.17441 0.00000 0.00000
											CHANNELS 3 Zrotation Xrotation Yrotation
											JOINT RightHandMiddle3
											{
												OFFSET -3.56743 0.00000 0.00000
												CHANNELS 3 Zrotation Xrotation Yrotation
												End site
												{
													OFFSET 0.00000 0.00000 0.00000
												}
											}
										}
									}
									JOINT RightHandRing1
									{
										OFFSET -12.69180 0.00000 -3.06433
										CHANNELS 3 Zrotation Xrotation Yrotation
										JOINT RightHandRing2
										{
											OFFSET -5.62556 0.00000 0.00000
											CHANNELS 3 Zrotation Xrotation Yrotation
											JOINT RightHandRing3
											{
												OFFSET -3.56744 0.00000 0.00000
												CHANNELS 3 Zrotation Xrotation Yrotation
												End site
												{
													OFFSET 0.00000 0.00000 0.00000
												}
											}
										}
									}
									JOINT RightHandPinky1
									{
										OFFSET -11.11390 0.00000 -6.03719
										CHANNELS 3 Zrotation Xrotation Yrotation
										JOINT RightHandPinky2
										{
											OFFSET -4.52789 0.00000 0.00000
											CHANNELS 3 Zrotation Xrotation Yrotation
											JOINT RightHandPinky3
											{
												OFFSET -2.46976 0.00000 0.00000
												CHANNELS 3 Zrotation Xrotation Yrotation
												End site
												{
													OFFSET 0.00000 0.00000 0.00000
												}
											}
										}
									}
								}
							}
						}
					}
					JOINT LeftShoulder
					{
						OFFSET 0.01000 7.91373 5.19711
						CHANNELS 3 Zrotation Xrotation Yrotation
						JOINT LeftArm
						{
							OFFSET 18.41580 0.00000 0.00000
							CHANNELS 3 Zrotation Xrotation Yrotation
							JOINT LeftForeArm
							{
								OFFSET 29.11090 0.00000 0.00000
								CHANNELS 3 Zrotation Xrotation Yrotation
								JOINT LeftHand
								{
									OFFSET 24.65040 0.00000 0.00000
									CHANNELS 3 Zrotation Xrotation Yrotation
									JOINT LeftHandThumb1
									{
										OFFSET 5.35114 -0.85590 3.97906
										CHANNELS 3 Zrotation Xrotation Yrotation
										JOINT LeftHandThumb2
										{
											OFFSET 4.52789 0.00000 0.00000
											CHANNELS 3 Zrotation Xrotation Yrotation
											JOINT LeftHandThumb3
											{
												OFFSET 2.46977 0.00000 0.00000
												CHANNELS 3 Zrotation Xrotation Yrotation
												End site
												{
													OFFSET 0.00000 0.00000 0.00000
												}
											}
										}
									}
									JOINT LeftHandIndex1
									{
										OFFSET 14.26970 0.00000 2.88139
										CHANNELS 3 Zrotation Xrotation Yrotation
										JOINT LeftHandIndex2
										{
											OFFSET 5.48836 0.00000 0.00000
											CHANNELS 3 Zrotation Xrotation Yrotation
											JOINT LeftHandIndex3
											{
												OFFSET 3.01859 0.00000 0.00000
												CHANNELS 3 Zrotation Xrotation Yrotation
												End site
												{
													OFFSET 0.00000 0.00000 0.00000
												}
											}
										}
									}
									JOINT LeftHandMiddle1
									{
										OFFSET 14.26970 0.00000 -0.09147
										CHANNELS 3 Zrotation Xrotation Yrotation
										JOINT LeftHandMiddle2
										{
											OFFSET 6.17440 0.00000 0.00000
											CHANNELS 3 Zrotation Xrotation Yrotation
											JOINT LeftHandMiddle3
											{
												OFFSET 3.56744 0.00000 0.00000
												CHANNELS 3 Zrotation Xrotation Yrotation
												End site
												{
													OFFSET 0.00000 0.00000 0.00000
												}
											}
										}
									}
									JOINT LeftHandRing1
									{
										OFFSET 12.69180 0.00000 -3.06433
										CHANNELS 3 Zrotation Xrotation Yrotation
										JOINT LeftHandRing2
										{
											OFFSET 5.62556 0.00000 0.00000
											CHANNELS 3 Zrotation Xrotation Yrotation
											JOINT LeftHandRing3
											{
												OFFSET 3.56744 0.00000 0.00000
												CHANNELS 3 Zrotation Xrotation Yrotation
												End site
												{
													OFFSET 0.00000 0.00000 0.00000
												}
											}
										}
									}
									JOINT LeftHandPinky1
									{
										OFFSET 11.11390 0.00000 -6.03719
										CHANNELS 3 Zrotation Xrotation Yrotation
										JOINT LeftHandPinky2
										{
											OFFSET 4.52789 0.00000 0.00000
											CHANNELS 3 Zrotation Xrotation Yrotation
											JOINT LeftHandPinky3
											{
												OFFSET 2.46976 0.00000 0.00000
												CHANNELS 3 Zrotation Xrotation Yrotation
												End site
												{
													OFFSET 0.00000 0.00000 0.00000
												}
											}
										}
									}
								}
							}
						}
					}
					JOINT pCube4
					{
						OFFSET 0.00000 10.91090 1.10792
						CHANNELS 3 Zrotation Xrotation Yrotation
						End site
						{
							OFFSET 0.00000 0.00000 0.00000
						}
					}
				}
			}
		}
	}
	JOINT RightUpLeg
	{
		OFFSET -9.98441 0.00000 0.00000
		CHANNELS 3 Zrotation Xrotation Yrotation
		JOINT RightLeg
		{
			OFFSET 0.00000 -42.11790 0.00000
			CHANNELS 3 Zrotation Xrotation Yrotation
			JOINT RightFoot
			{
				OFFSET 0.00000 -45.00020 -0.00001
				CHANNELS 3 Zrotation Xrotation Yrotation
				JOINT RightForeFoot
				{
					OFFSET 0.00000 -3.74820 0.00000
					CHANNELS 3 Zrotation Xrotation Yrotation
					JOINT RightToeBase
					{
						OFFSET 0.00000 0.06325 14.43120
						CHANNELS 3 Zrotation Xrotation Yrotation
						End site
						{
							OFFSET 0.00000 0.00000 0.00000
						}
					}
				}
			}
		}
	}
	JOINT LeftUpLeg
	{
		OFFSET 9.98441 0.00000 0.00000
		CHANNELS 3 Zrotation Xrotation Yrotation
		JOINT LeftLeg
		{
			OFFSET 0.00000 -42.11800 0.00000
			CHANNELS 3 Zrotation Xrotation Yrotation
			JOINT LeftFoot
			{
				OFFSET 0.00000 -45.00070 0.00000
				CHANNELS 3 Zrotation Xrotation Yrotation
				JOINT LeftForeFoot
				{
					OFFSET 0.00000 -3.74824 0.00000
					CHANNELS 3 Zrotation Xrotation Yrotation
					JOINT LeftToeBase
					{
						OFFSET 0.00000 0.06325 14.43110
						CHANNELS 3 Zrotation Xrotation Yrotation
						End site
						{
							OFFSET 0.00000 0.00000 0.00000
						}
					}
				}
			}
		}
	}
}
MOTION
Frames: 4
Frame Time: 0.050000
0.006748759829771195 -0.007732606168654826 -0.0028358830940237406 -0.021445510610293855 -0.018758145309720635 0.04646512707601068 -2.1567128392386175 0.268554322603693 -0.8602133002355945 -0.932814350916014 3.6984590022622577 0.40859639866819103 -1.1359998954036208 -1.8379475513532424 -1.3095427808549596 0.06152219430095313 0.4019480245443339 -0.8653352798382226 -0.11543953765988568 12.765211821980389 0.7846658082115324 0.48787677837557103 0.5812427031651736 1.1497214220881422 0.28493008230957834 -13.838187616588229 0.12928437409171634 -3.6595334442406133 1.42270453098157 -15.663491535571378 73.45307175870795 15.920738915457129 -0.7563224414162683 -3.7446746413612066 7.351534269674028 42.477649687348524 22.702480267774444 -0.06737474906131591 -4.924210796831056 4.531487515763429 -0.12751373373602332 -1.5587762542511512 -0.049220832245803724 0.035206989569173716 -56.27131837288586 0.0012021098918319022 0.02338890866237093 -56.21489892656524 -38.80481944853567 -0.007348372860327487 0.004767619633494558 0.04731334303202002 -0.025195783700125866 0.026194800889220174 0.03839754327094656 -0.0004379835526237043 -0.01024660606142723 -36.6467560907109 -0.019243264843281732 0.0023675748438309442 -0.010688947942652634 0.014231637821478722 0.01974554551293154 0.029422318796617913 0.03197422454786426 -0.0035070173623186563 -19.72637022357358 -0.008057602320103413 0.04329981534672222 0.009347144885301934 0.013276469123187496 0.04199163964508755 -0.014609098787580542 -0.03701441062381134 -0.028027881941110343 24.09332225437488 -0.03795703383098639 0.04414216162013802 28.883964455590057 -0.0117614190358798 -0.026741005538824757 28.890365310440576 0.03241507446722741 0.026191253824049587 5.467533867040377 1.3248540356751195 13.805564935711216 -71.15268286277734 29.449798981013522 -6.965164950009334 -7.058392555814767 -7.729449103947632 -89.1703346447524 -9.829450979785944 -5.917632314131863 3.8408238868591056 -0.4450584143799551 0.03378268092846179 -8.084736184583917 0.025327627795664994 0.01159054306707059 44.5623285470655 -0.04707883885616864 -0.02782219340049969 44.56907131118502 12.508929674891009 -0.005602847845433024 -0.04747154473710695 0.022446189448340877 -0.03178255223583533 -0.035770291696283665 -0.020490558116134094 -0.021211772994322295 -0.006531483183113666 11.10406554960043 -0.012746378367148056 -0.014140160918260581 -0.007591426818829455 -0.0031874988643266515 0.03211753215669046 0.047555623746379005 0.012834157359822025 0.03517336144750356 4.736078372718456 -0.02734444282086055 0.004715332780882512 0.0014126619793760327 0.0191647959816719 0.026823915685745745 -0.03806327395538738 -0.04512910452970457 0.03710748015579827 -5.585571669274658 -0.030490083730581152 0.012769331209683309 -6.709245348416673 -0.021056001529103398 0.006315362975841939 -6.698416662258714 0.029565059553247838 0.027035514636388234 -0.014432286437180858 -0.017294464410955283 -0.022544523435491577 8.030609807764863 3.506223500350766 -19.26140353813652 0.034953332922441016 10.42433856938375 -0.019848833214962804 -5.660582351244998 -15.64846629288685 3.1977291888012505 0.024233132828314085 -0.026134613746879864 -0.028651831547337667 -0.029131150173402804 4.68375738377115 -0.023609125764222905 12.462487286322544 -8.234020095057788 6.8334474931768465 -0.032890048571457914 46.4040751314367 0.01918145676738332 -4.346750118319568 -14.75089378287526 -3.812418792617984 -0.01574986438779877 -0.04305195102731154 -0.015694150026020356 0.03903426542810188 -10.784810061626452 0.005197342090439805 
-0.04420956082032691 -0.02351307672224146 -0.048375205497109414 -0.01664658214832723 0.023067397493725977 0.013817491407349745 -2.3962270011210447 0.220566894003422 -0.838723805495011 -0.9963156688714176 3.7428782119025445 0.38071094643785447 -1.1975002167462567 -1.9609143228810806 -1.3888727386992545 0.007660723718216515 0.38737652785663734 -0.8298790746714373 -0.1589014326731325 12.979004497493545 1.1108047725746186 0.5730590293905453 0.6735104760318357 1.8937919817225184 0.2966752772583079 -13.723430880363908 0.128834746769346 -3.7476892200185516 1.3872714038959177 -15.681011397107413 73.28511671481216 15.257226044108279 -0.9079206024727282 -3.32771656082109 7.486577409176103 42.40572660114506 22.84498915094665 -0.044848556648728714 -4.825726318933081 4.540331686735931 -0.14542093649087617 -1.5753776342863648 -0.02650567425626715 -0.00030306912946256523 -56.249587924525656 0.0108846305945576 -0.01813269295338365 -56.23802370355954 -38.76439256103371 0.04787860144544014 -0.03370379177966192 -0.014212589124089806 -0.004090860140857494 -0.008653761153836554 0.03277608364684912 -0.032417536975904625 0.012286044072616244 -36.653491325428334 0.02638895093984572 0.00630035807370542 0.0062759516344196185 0.02033100368252168 0.004118158666682007 0.02977832920945045 0.015068553935643708 0.047618250358690176 -19.7506470617179 -0.032023696131638565 -0.023939617464825532 -0.04786627566747682 0.03552165738085269 0.04877415728056878 0.005142481442033431 0.009503222485419871 -0.01953901964927275 24.03468926312723 0.024306662897726334 0.02229702726385372 28.8438765491712 0.00561725444518455 0.02576746904658507 28.81696625119262 -0.028280217189291197 0.04400333195625316 5.612044891796217 1.4006230691605062 13.869968583774536 -71.05355618950281 29.87841169000089 -7.266466480026049 -7.18418846534251 -7.9312206883391845 -89.6076647111853 -8.830714410048953 -5.1068501909739625 2.8649691448951446 -0.4885331986841778 0.07644309180311704 -8.164182193325463 0.006132308413391615 -0.015336010871333804 44.563850102271644 -0.03954559868772006 -0.038264341600113674 44.54252436901412 12.478869982177784 0.033029732301049115 0.0006902389106840548 -0.030852812353700267 -0.023152123306606577 -0.027699038201713613 -0.017121518685972573 0.043418022576308585 0.006119185184102231 11.078574495347059 -0.0029923662918157398 0.02931184699143157 0.032872580042227977 0.010517851079909098 0.005235970152605057 -0.04321121182807566 0.041069245535820975 0.014843760524233106 4.813288863589602 -0.0017431202209041024 -0.0004666421485350448 -0.031217002427388733 -0.012449645994552967 -0.0120849468699101 -0.032817997373531096 -0.00664844719670768 -0.0280831763996137 -5.5982118539353865 0.022436366454523318 0.011965638326787209 -6.749226064914611 -0.00976700397293712 -0.03524484221697013 -6.752896746092648 -0.03433159812426808 0.041533497849354326 -0.039527523802489334 -0.01976633693955539 -0.003982761826325383 8.06796665419005 3.47689986975092 -19.23347740085641 0.022082841737550193 10.39751328164922 0.009703493424179595 -5.635374651249033 -15.66671980989701 3.235604128758964 0.003176338781344256 -0.038047021866339244 -0.0057282284524945715 -0.011773552895616385 4.7048322671142575 0.03178807259174952 12.459682843858571 -8.269785539186556 6.85643667099233 0.02106276562464118 46.33874141117139 -0.012683560938319356 -4.368010487329995 -14.706647225677488 -3.8054794082714216 0.034821435554156684 0.047345984418989615 0.011019650730389376 -0.02949279578846414 -10.780545236764427 -0.016884568008375306 
-0.019837976035703777 0.003989151824427067 0.008205064948461174 -0.04089980786762287 0.037557173071509395 0.02415173548470422 -2.446385294545218 0.16455975413260526 -0.8027655178989251 -1.0046815392856012 3.673690130514021 0.34493096992227623 -1.1875677579717456 -1.9953124368156085 -1.4232941337154106 -0.08407635124446886 0.45410749764822145 -0.8958555991916914 -0.2697104534512238 13.190793566023682 1.4260936320542745 0.5654043310825542 0.7028279962435413 2.7394893889571263 0.2606252699448433 -13.651340874150398 0.2548577737610223 -3.883132131673867 1.4692578537027097 -15.707857422080389 73.22245419967372 15.271123284453818 -1.0844000316133726 -2.443445713108077 7.618882774880389 42.900604950683274 22.854983192098945 -0.030329769879231104 -4.668866774208684 4.5460316228916 -0.16939901745950714 -1.554587170275009 0.004603542271729859 0.007578649720932765 -56.237738148648894 0.023549597945970273 0.028511932908158052 -56.23484167418903 -38.77288431565326 -0.02687125669881272 0.016901673712764517 0.0175268933156389 0.014025164577348733 -0.01897306778196603 0.03461617264173061 -0.028742444302171245 0.001979156666423783 -36.646079038945494 -0.04667371784841676 0.03227783479800471 -0.013678254348922827 0.010106083696885391 0.028750439703376762 0.02367139980782704 -0.029070132602287562 -0.030416685116145308 -19.710788885116056 -0.03565537260784909 0.007092236734961469 -0.008502994243757701 0.03125743376985369 0.03754913825224941 0.006474427789297618 -0.009756829121345234 -0.013696260738281956 24.041331477658307 -0.04701728961041918 0.023829022320211005 28.881312357719448 -0.0498870576930626 -0.029571352496068775 28.88581897052309 -0.0036338655958246193 -0.008604881955969009 5.812848223042641 1.4097005432161402 13.94974017037344 -70.87712584691805 30.448382994594798 -7.405912622053996 -6.022451311663289 -8.725449108639665 -90.46548548573826 -7.7556448164425085 -4.343501700557227 1.6690964597596074 -0.44300173377418306 0.03144488235635173 -8.12121236826078 -0.007286678073489182 -0.034271211038131764 44.55851711240892 -0.021083623076110284 -0.0164420766454246 44.58926035667054 12.487155362637495 0.04931470780764701 -0.006545092537567714 0.025246773507690938 -0.013798511820013036 -0.005635174905740193 -0.020375796846986774 -0.015530757780245655 0.04449386839398197 11.091010222274862 -0.031696151366094334 0.007770954639962092 0.004096793376119251 0.011665037969927058 -0.02290004181029903 -0.024977974402598392 0.020521491929806183 0.005765898509804812 4.780415057668109 -0.04279812015938017 -0.028403115619954802 0.007597266155238725 0.03838405602818486 -0.04457888438532827 -0.04121859319774925 -0.040964605573892955 0.009074396822475638 -5.630458560296419 0.00821025886652125 -0.02778832377862688 -6.703424021649395 -0.04258197665556219 0.0055349866657707705 -6.74071179684876 0.018287998876887267 -0.03825654589742282 0.02904089317043772 -0.021240509466907344 0.024695068529450404 8.073985088870328 3.4915508938404174 -19.230787075071152 0.0330120749190216 10.394881281589571 -0.032364499066120975 -5.6344668523943815 -15.61565889515721 3.2049999435969974 -0.038048443179392634 -0.033495573847497594 -0.03861756493073194 -0.008842301545699852 4.7354092475110265 0.02286219752711013 12.428878486138139 -8.243673422602557 6.872591478006512 -0.016782519042250265 46.39143234551572 -0.0453193654632654 -4.320644549146047 -14.795549364430533 -3.880985002564773 0.045629944411411695 0.005328275784446419 0.021772608310572313 0.03461466678359564 -10.794109238046074 -0.026779402286585215 
-0.01056050141687307 0.037358044573524575 0.028111472685311834 -0.030208631031397107 -0.005464487283256747 -0.020794643446126013 -2.612265194996166 0.13210957652161134 -0.820539619807347 -1.003854737713992 3.7652674276207097 0.32752597966227837 -1.2456929556822605 -1.9875664337017744 -1.4445266996472024 -0.09114456299559598 0.4313224787028259 -0.8944240672637346 -0.3507592865512612 13.384023823950752 1.6670037473531707 0.6486170226703399 0.8076511400615772 3.532592918799634 0.16701802628888016 -13.570550735729134 0.22560890201373798 -3.928362296383478 1.471940698325811 -15.76429856455835 73.16133408617962 15.067367540364373 -1.3338090408945942 -1.630789975210487 7.623135315131163 43.3393947205399 22.8004084168971 -0.044339460155594104 -4.429623258690121 4.565439167727289 -0.13513440335758498 -1.5793011721385168 -0.017243624149540657 -0.03896975288515573 -56.24637436052159 -0.018288205324838182 0.048729279591414355 -56.22601114148992 -38.74494614769284 -0.044132123273922484 -0.037697246222229495 0.019678908441746176 0.04374885097373765 0.028279778732175666 -0.03139075675439768 0.0417988338168206 0.04874869103871532 -36.72513608411457 -0.044086793157327296 0.0011404158836758474 -0.02902726187638664 -0.001774273492271371 -0.024502354052798183 0.016396069616508805 0.024598631236541258 -0.03242918542088723 -19.747978233891303 -0.03203027879796555 0.03827794245439487 0.03548171593985399 0.04441117116401697 -0.036771628022848335 -0.04045192566059582 -0.001956833244847647 0.00812685588681243 24.039677942967167 0.031235521117663863 0.0016789317353247432 28.90089982712112 0.02153433176683367 -0.02144567440557073 28.8234524004959 -0.0031086519180495964 -0.008671930374999673 6.04719721767103 1.4266142071620596 13.97303203290817 -70.50648916623592 30.96136904508492 -7.737724512787423 -3.323473085487121 -10.052656853475463 -91.61547259255114 -6.318916551728063 -3.6840690871170287 0.3588933813143405 -0.511009252435669 0.0746204528001137 -8.115439767165407 0.0017753198955375083 -0.030726267591106 44.582662336782214 -0.04167290745666919 -0.002573273135886709 44.586821585949195 12.465436393527131 -0.03184207924033842 -0.025750904987197485 -0.014067547140770508 0.022483903899854243 -0.03178878946890839 -0.007808702963802708 -0.03180291421655097 0.005588286204486551 11.086408438195527 0.011160110198149177 0.015128400417265346 0.0024175331555385507 0.01678334950154828 0.009280703893073693 0.026012265492984157 -0.022040556769304616 0.007452156525560609 4.726054240082457 0.023337205735269075 -0.004487819504453946 0.009994353588558344 -0.043438795368790646 -0.013468203003197534 -0.014828554909817935 -0.03740151197911965 0.035518286044039594 -5.610601327835318 0.025474035120350968 0.0010596861275687392 -6.7267918036745264 0.04228057081799355 -0.04391666310824843 -6.729224850502476 0.029834038551803145 -0.04809948949501421 -0.02300314385827187 0.014390049417569996 -0.009412630221728042 8.037526193996003 3.5278545433931647 -19.21378508926907 -0.008319460171206416 10.37873740817334 0.023328456903540372 -5.587784703163326 -15.638100698684799 3.152291710389667 -0.0062080479089497 -0.047053479453366576 0.01303237143205882 0.02115070992548161 4.738484070989712 0.04984549203637657 12.500064899878996 -8.24537735189459 6.857146700486289 0.0339977604941266 46.34212556303434 0.0016818397035543993 -4.324075084686286 -14.793794468341709 -3.792655702123285 0.020990698684285106 -0.014723080608822521 0.041853215574509606 -0.026252858009082752 -10.75931114222399 -0.006068329763657554 
